<svg width="86" height="86" viewBox="0 0 86 86" fill="none" xmlns="http://www.w3.org/2000/svg">
<g clip-path="url(#clip0_106_330)">
<path d="M30 10.25L27.91 9.7275C27.031 9.50767 26.2283 9.05312 25.5876 8.41243C24.9469 7.77174 24.4923 6.969 24.2725 6.09L23.75 4H21.25L20.725 6.09C20.5054 6.96869 20.0512 7.77122 19.411 8.41188C18.7708 9.05254 17.9685 9.50727 17.09 9.7275L15 10.25V12.75L17.09 13.2725C17.969 13.4923 18.7717 13.9469 19.4124 14.5876C20.0531 15.2283 20.5077 16.031 20.7275 16.91L21.25 19H23.75L24.2725 16.91C24.4923 16.031 24.9469 15.2283 25.5876 14.5876C26.2283 13.9469 27.031 13.4923 27.91 13.2725L30 12.75V10.25Z" fill="white"/>
<path d="M15 36.25L12.91 35.7275C12.031 35.5077 11.2283 35.0531 10.5876 34.4124C9.94688 33.7717 9.49233 32.969 9.2725 32.09L8.75 30H6.25L5.725 32.09C5.50537 32.9687 5.0512 33.7712 4.41098 34.4119C3.77076 35.0525 2.96854 35.5073 2.09 35.7275L0 36.25V38.75L2.09 39.2725C2.969 39.4923 3.77174 39.9469 4.41243 40.5876C5.05312 41.2283 5.50767 42.031 5.7275 42.91L6.25 45H8.75L9.2725 42.91C9.49233 42.031 9.94688 41.2283 10.5876 40.5876C11.2283 39.9469 12.031 39.4923 12.91 39.2725L15 38.75V36.25Z" fill="white"/>
<path d="M86 25.25L83.91 24.7275C83.031 24.5077 82.2283 24.0531 81.5876 23.4124C80.9469 22.7717 80.4923 21.969 80.2725 21.09L79.75 19H77.25L76.725 21.09C76.5054 21.9687 76.0512 22.7712 75.411 23.4119C74.7708 24.0525 73.9685 24.5073 73.09 24.7275L71 25.25V27.75L73.09 28.2725C73.969 28.4923 74.7717 28.9469 75.4124 29.5876C76.0531 30.2283 76.5077 31.031 76.7275 31.91L77.25 34H79.75L80.2725 31.91C80.4923 31.031 80.9469 30.2283 81.5876 29.5876C82.2283 28.9469 83.031 28.4923 83.91 28.2725L86 27.75V25.25Z" fill="white"/>
<path d="M11.3922 68.9481C11.3631 68.1502 11.5931 67.3644 12.0478 66.7082C12.5025 66.052 13.1575 65.5607 13.9148 65.3079C14.2455 65.2055 14.5895 65.1526 14.9357 65.1509C19.2788 64.8702 23.47 63.4441 27.0829 61.0175C30.6958 58.5909 33.6015 55.2505 35.5041 51.3362C37.4068 47.4219 38.2387 43.0734 37.915 38.7331C37.5914 34.3929 36.1238 30.2158 33.6617 26.6269C33.5023 26.3833 33.3689 26.1235 33.2638 25.852C32.9715 25.1371 32.9105 24.3486 33.0894 23.5973C33.2683 22.846 33.6781 22.1696 34.2612 21.6632C34.8971 21.1251 35.6893 20.8059 36.5207 20.7528C42.1006 20.4279 47.6684 21.5688 52.6708 24.0624C57.6732 26.5559 61.936 30.3152 65.0356 34.9665C68.1351 39.6179 69.9635 44.9995 70.339 50.5764C70.7144 56.1533 69.624 61.7313 67.1759 66.7561C64.7278 71.7809 61.0074 76.0775 56.3844 79.219C51.7613 82.3604 46.3967 84.2372 40.8236 84.663C35.2505 85.0887 29.663 84.0485 24.6163 81.6458C19.5697 79.243 15.2397 75.5614 12.0566 70.9668C11.6501 70.3695 11.4199 69.67 11.3922 68.9481ZM46.4508 76.0347C51.5881 74.2687 55.9977 70.8542 58.9935 66.3224C61.9892 61.7907 63.4032 56.3957 63.0154 50.977C62.6276 45.5583 60.4597 40.4197 56.8491 36.3606C53.2384 32.3016 48.3875 29.5497 43.051 28.5332C44.7258 32.6943 45.5097 37.1604 45.352 41.6432C45.1944 46.126 44.0987 50.5259 42.1357 54.5591C40.1727 58.5922 37.386 62.169 33.9554 65.0587C30.5247 67.9484 26.5264 70.0867 22.2184 71.3357C25.4937 74.1701 29.4552 76.0957 33.7074 76.9203C37.9595 77.7448 42.3536 77.4395 46.4508 76.0347Z" fill="white"/>
</g>
<defs>
<clipPath id="clip0_106_330">
<rect width="86" height="86" fill="white"/>
</clipPath>
</defs>
</svg>
