<svg width="92" height="92" viewBox="0 0 92 92" fill="none" xmlns="http://www.w3.org/2000/svg">
<path fill-rule="evenodd" clip-rule="evenodd" d="M45.9724 0.325073C48.1815 0.325073 49.9724 2.11593 49.9724 4.32507V8.92946C49.9724 11.1386 48.1815 12.9295 45.9724 12.9295C43.7632 12.9295 41.9724 11.1386 41.9724 8.92946V4.32507C41.9724 2.11593 43.7632 0.325073 45.9724 0.325073ZM13.5857 13.6456C15.1413 12.077 17.674 12.0665 19.2425 13.6221L22.525 16.8774C24.0935 18.433 24.104 20.9656 22.5484 22.5342C20.9928 24.1028 18.4602 24.1133 16.8916 22.5577L13.6092 19.3024C12.0406 17.7468 12.0301 15.2141 13.5857 13.6456ZM78.359 13.6456C79.9146 15.2141 79.9041 17.7468 78.3355 19.3024L75.0531 22.5577C73.4845 24.1133 70.9519 24.1028 69.3963 22.5342C67.8407 20.9656 67.8512 18.433 69.4197 16.8774L72.7022 13.6221C74.2707 12.0665 76.8034 12.077 78.359 13.6456ZM45.9724 31.347C42.0972 31.347 38.3874 32.874 35.6573 35.5815C32.9284 38.2879 31.4013 41.9515 31.4013 45.7645C31.4013 49.5775 32.9284 53.2411 35.6573 55.9476C38.3874 58.6551 42.0972 60.1821 45.9724 60.1821C49.8475 60.1821 53.5573 58.6551 56.2874 55.9476C59.0163 53.2411 60.5434 49.5775 60.5434 45.7645C60.5434 41.9515 59.0163 38.2879 56.2874 35.5815C53.5573 32.874 49.8475 31.347 45.9724 31.347ZM30.024 29.9012C34.2594 25.7008 39.9968 23.347 45.9724 23.347C51.9479 23.347 57.6853 25.7008 61.9207 29.9012C66.1572 34.1027 68.5434 39.8083 68.5434 45.7645C68.5434 51.7208 66.1572 57.4263 61.9207 61.6278C57.6853 65.8282 51.9479 68.1821 45.9724 68.1821C39.9968 68.1821 34.2594 65.8282 30.024 61.6278C25.7875 57.4263 23.4013 51.7208 23.4013 45.7645C23.4013 39.8083 25.7875 34.1027 30.024 29.9012ZM0.187561 45.7645C0.187561 43.5554 1.97842 41.7645 4.18756 41.7645H8.83032C11.0395 41.7645 12.8303 43.5554 12.8303 45.7645C12.8303 47.9737 11.0395 49.7645 8.83032 49.7645H4.18756C1.97842 49.7645 0.187561 47.9737 0.187561 45.7645ZM79.1144 45.7645C79.1144 43.5554 80.9053 41.7645 83.1144 41.7645H87.7571C89.9663 41.7645 91.7571 43.5554 91.7571 45.7645C91.7571 47.9737 89.9663 49.7645 87.7571 49.7645H83.1144C80.9053 49.7645 79.1144 47.9737 79.1144 45.7645ZM69.3963 68.9949C70.9519 67.4263 73.4845 67.4158 75.0531 68.9714L78.3355 72.2267C79.9041 73.7823 79.9146 76.3149 78.359 77.8835C76.8034 79.4521 74.2707 79.4626 72.7022 77.907L69.4197 74.6517C67.8512 73.0961 67.8407 70.5634 69.3963 68.9949ZM22.5484 68.9949C24.104 70.5634 24.0935 73.0961 22.525 74.6517L19.2425 77.907C17.674 79.4626 15.1413 79.4521 13.5857 77.8835C12.0301 76.3149 12.0406 73.7823 13.6092 72.2267L16.8916 68.9714C18.4602 67.4158 20.9928 67.4263 22.5484 68.9949ZM45.9724 78.5996C48.1815 78.5996 49.9724 80.3905 49.9724 82.5996V87.204C49.9724 89.4131 48.1815 91.204 45.9724 91.204C43.7632 91.204 41.9724 89.4131 41.9724 87.204V82.5996C41.9724 80.3905 43.7632 78.5996 45.9724 78.5996Z" fill="white"/>
</svg>
